<svg version="1.1" id="Layer_1" xmlns="http://www.w3.org/2000/svg" xmlns:xlink="http://www.w3.org/1999/xlink" x="0px" y="0px" viewBox="0 0 500 500" style="width: 151px;" xml:space="preserve" data-imageid="authentication-19" imageName="Authentication" class="illustrations_image">
<style type="text/css">
	.st0_authentication-19{fill:#68E1FD;}
	.st1_authentication-19{fill:#093F68;}
	.st2_authentication-19{fill:#FFFFFF;}
	.st3_authentication-19{fill:#F56132;}
	.st4_authentication-19{fill:#FFBC0E;}
	.st5_authentication-19{fill:#70CC40;}
</style>
<g id="mobile_authentication-19">
	<path class="st0_authentication-19 targetColor" d="M159.6,80.9h184.3c9.4,0,17,7.6,17,17v304.4c0,9.4-7.6,17-17,17H159.6c-9.4,0-17-7.6-17-17V97.8&#10;&#9;&#9;C142.6,88.5,150.2,80.9,159.6,80.9z" style="fill: rgb(10, 124, 0);"/>
	<path class="st1_authentication-19" d="M343.1,421H160.3c-10.8,0-19.5-8.7-19.5-19.5V98.6c0-10.8,8.7-19.5,19.5-19.6h182.8c10.8,0,19.5,8.7,19.5,19.5&#10;&#9;&#9;v302.9C362.6,412.2,353.9,421,343.1,421z M160.3,82.7c-8.8,0-15.9,7.1-15.9,15.9v302.9c0,8.8,7.1,15.9,15.9,15.9h182.8&#10;&#9;&#9;c8.8,0,15.9-7.1,15.9-15.9V98.6c0-8.8-7.1-15.9-15.9-15.9H160.3z"/>
	<path class="st2_authentication-19" d="M158.1,115h187.3c2.8,0,5.1,2.3,5.1,5.1v254.4c0,2.8-2.3,5.1-5.1,5.1H158.1c-2.8,0-5.1-2.3-5.1-5.1V120.1&#10;&#9;&#9;C153,117.3,155.3,115,158.1,115z"/>
	<path class="st1_authentication-19" d="M341.2,381.4H162.2c-6.1,0-11.1-5-11.1-11.1v-246c0-6.1,5-11.1,11.1-11.1h178.9c6.1,0,11.1,5,11.1,11.1v246&#10;&#9;&#9;C352.3,376.4,347.3,381.4,341.2,381.4z M162.2,116.8c-4.1,0-7.4,3.3-7.4,7.4v246c0,4.1,3.3,7.4,7.4,7.4h178.9&#10;&#9;&#9;c4.1,0,7.4-3.3,7.4-7.4v-246c0-4.1-3.3-7.4-7.4-7.4L162.2,116.8z"/>
	<circle class="st1_authentication-19" cx="223.6" cy="99.7" r="2.9"/>
	<path class="st1_authentication-19" d="M282.7,101.5h-45.5c-1,0.1-1.9-0.7-2-1.7s0.7-1.9,1.7-2c0.1,0,0.2,0,0.3,0h45.5c1-0.1,1.9,0.7,2,1.7&#10;&#9;&#9;s-0.7,1.9-1.7,2C282.9,101.5,282.8,101.5,282.7,101.5z"/>
	<circle class="st1_authentication-19" cx="251.7" cy="398.3" r="12"/>
	<path class="st2_authentication-19" d="M288.6,308.2v-15.5c0-17.1-16.7-31-37.3-31s-37.3,13.9-37.3,31v15.5H288.6z"/>
	<path class="st1_authentication-19" d="M288.6,310h-74.7c-1,0-1.8-0.8-1.8-1.8c0,0,0,0,0,0v-15.5c0-18.1,17.6-32.8,39.2-32.8s39.2,14.7,39.2,32.8&#10;&#9;&#9;v15.5C290.4,309.2,289.6,310,288.6,310z M215.7,306.4h71v-13.7c0-16.1-15.9-29.2-35.5-29.2s-35.5,13.1-35.5,29.2L215.7,306.4z"/>
	<path class="st2_authentication-19" d="M252.3,151.4L252.3,151.4c26.6,0,48.1,21.5,48.1,48.1l0,0v1.7c0,14.3-11.6,25.9-25.9,25.9h-44.3&#10;&#9;&#9;c-14.3,0-25.9-11.6-25.9-25.9v-1.7C204.2,172.9,225.7,151.4,252.3,151.4L252.3,151.4z"/>
	<path class="st1_authentication-19" d="M300.4,228.9h-96.2c-1,0-1.8-0.8-1.8-1.8l0,0v-32.3c0-24.9,20.3-45.2,45.2-45.2h9.4&#10;&#9;&#9;c24.9,0,45.2,20.2,45.2,45.2v32.3C302.2,228.1,301.4,228.9,300.4,228.9z M206,225.3h92.5v-30.5c0-22.9-18.6-41.5-41.5-41.5h-9.5&#10;&#9;&#9;c-22.9,0-41.5,18.6-41.5,41.5V225.3z"/>
	<path class="st2_authentication-19" d="M244.7,258.9h13.7l0,0v10.5c0,1.8-1.4,3.2-3.2,3.2l0,0h-7.4c-1.8,0-3.2-1.4-3.2-3.2l0,0L244.7,258.9&#10;&#9;&#9;L244.7,258.9z"/>
	<path class="st1_authentication-19" d="M252.6,274.4h-2.1c-4.2,0-7.6-3.4-7.6-7.6v-7.9c0-1,0.8-1.8,1.8-1.8h13.7c1,0,1.8,0.8,1.8,1.8v7.9&#10;&#9;&#9;C260.3,271,256.9,274.4,252.6,274.4z M246.6,260.7v6.1c0,2.2,1.8,4,4,4h2.1c2.2,0,4-1.8,4-4c0,0,0,0,0,0v-6.1H246.6z"/>
	<ellipse class="st2_authentication-19" cx="212.4" cy="223.2" rx="13.3" ry="11.5"/>
	<path class="st1_authentication-19" d="M212.4,236.5c-8.4,0-15.2-6-15.2-13.3s6.8-13.3,15.2-13.3s15.2,6,15.2,13.3S220.7,236.5,212.4,236.5z&#10;&#9;&#9; M212.4,213.5c-6.4,0-11.5,4.3-11.5,9.7s5.2,9.7,11.5,9.7s11.5-4.3,11.5-9.7S218.7,213.5,212.4,213.5L212.4,213.5z"/>
	<ellipse class="st2_authentication-19" cx="290.1" cy="223.2" rx="13.3" ry="11.5"/>
	<path class="st1_authentication-19" d="M290.1,236.5c-8.4,0-15.2-6-15.2-13.3s6.8-13.3,15.2-13.3s15.2,6,15.2,13.3S298.5,236.5,290.1,236.5z&#10;&#9;&#9; M290.1,213.5c-6.4,0-11.5,4.3-11.5,9.7s5.2,9.7,11.5,9.7s11.5-4.3,11.5-9.7S296.5,213.5,290.1,213.5L290.1,213.5z"/>
	<path class="st2_authentication-19" d="M251.6,260.7L251.6,260.7c-22.2,0-40.2-18-40.2-40.2v-22.6c0-8.1,6.6-14.7,14.7-14.7h51&#10;&#9;&#9;c8.1,0,14.7,6.6,14.7,14.7c0,0,0,0,0,0v22.6C291.8,242.6,273.8,260.6,251.6,260.7z"/>
	<path class="st1_authentication-19" d="M251.6,262.5c-23.2-0.1-42-18.9-42-42.1v-22.5c0-9.1,7.4-16.5,16.5-16.5h51c9.1,0,16.5,7.4,16.5,16.5v22.6&#10;&#9;&#9;C293.6,243.7,274.8,262.5,251.6,262.5z M226.1,185c-7.1,0-12.9,5.8-12.9,12.9v22.6c0,21.2,17.2,38.4,38.4,38.4s38.4-17.2,38.4-38.4&#10;&#9;&#9;v-22.5c0-7.1-5.8-12.9-12.9-12.9H226.1z"/>
	<path class="st1_authentication-19" d="M229.3,309c-1,0-1.8-0.8-1.8-1.8v-18.6c0-1,0.8-1.8,1.8-1.8s1.8,0.8,1.8,1.8v18.6&#10;&#9;&#9;C231.1,308.2,230.3,309,229.3,309z"/>
	<path class="st1_authentication-19" d="M273.2,309c-1,0-1.8-0.8-1.8-1.8v-18.6c0.1-1,1-1.8,2-1.7c0.9,0.1,1.6,0.8,1.7,1.7v18.6&#10;&#9;&#9;C275,308.2,274.2,309,273.2,309z"/>
	<path class="st3_authentication-19" d="M201.8,325.5h95.5c6,0,10.9,4.9,10.9,10.9v1.7c0,6-4.9,10.9-10.9,10.9h-95.5c-6,0-10.9-4.9-10.9-10.9v-1.7&#10;&#9;&#9;C190.9,330.3,195.8,325.5,201.8,325.5z"/>
	<path class="st1_authentication-19" d="M296.4,350.8h-93.7c-7.5-0.2-13.4-6.5-13.2-14c0.2-7.2,6-13,13.2-13.2h93.7c7.5,0.2,13.4,6.5,13.2,14&#10;&#9;&#9;C309.4,344.8,303.6,350.6,296.4,350.8z M202.7,327.3c-5.5,0-9.9,4.4-9.9,9.9c0,5.5,4.4,9.9,9.9,9.9h93.7c5.5,0,9.9-4.5,9.9-9.9&#10;&#9;&#9;c0-5.5-4.4-9.9-9.9-9.9L202.7,327.3z"/>
</g>
<g id="speech-bubble_authentication-19">
	<path class="st4_authentication-19" d="M116.4,178.3h60l8.7,15.2v-15.2h4.5c9.1,0,16.4-7.3,16.4-16.4c0,0,0,0,0,0v-11.6c0-9-7.4-16.3-16.4-16.3h-73.2&#10;&#9;&#9;c-9,0-16.4,7.3-16.4,16.3v11.6C100,171,107.3,178.3,116.4,178.3z"/>
	<path class="st1_authentication-19" d="M185.1,195.4c-0.7,0-1.3-0.4-1.6-0.9l-8.2-14.3h-59c-10.1,0-18.2-8.2-18.2-18.2v-11.6&#10;&#9;&#9;c0-10.1,8.2-18.2,18.2-18.2h73.3c10.1,0,18.2,8.2,18.2,18.2v11.6c0,10.1-8.2,18.2-18.2,18.2H187v13.4c0,0.8-0.6,1.6-1.4,1.8&#10;&#9;&#9;C185.5,195.3,185.3,195.4,185.1,195.4z M116.4,135.8c-8,0-14.6,6.5-14.6,14.6v11.6c0,8,6.5,14.6,14.6,14.6h60&#10;&#9;&#9;c0.7,0,1.3,0.3,1.6,0.9l5.3,9.3v-8.4c0-1,0.8-1.8,1.8-1.8c0,0,0,0,0,0h4.5c8,0,14.6-6.5,14.6-14.6v-11.6c0-8-6.5-14.6-14.6-14.6&#10;&#9;&#9;H116.4z"/>
	<path class="st2_authentication-19" d="M133.4,151.5l6-2l1.4,4.3l-6,1.9l3.8,5.2l-3.8,2.8l-3.8-5.2l-3.7,5l-3.7-2.8l3.8-5l-6.1-2.1l1.5-4.3l6,2.1&#10;&#9;&#9;v-6.2h4.6L133.4,151.5z"/>
	<path class="st2_authentication-19" d="M155.4,151.5l6-2l1.4,4.3l-6,1.9l3.8,5.3l-3.8,2.8l-3.8-5.2l-3.7,5l-3.7-2.8l3.8-5l-6.1-2.1l1.4-4.3l6,2.1&#10;&#9;&#9;v-6.3h4.6L155.4,151.5z"/>
	<path class="st2_authentication-19" d="M177.3,151.5l6-2l1.4,4.3l-6,1.9l3.8,5.2l-3.8,2.8l-3.8-5.2l-3.7,5l-3.7-2.8l3.8-5l-6.1-2.1l1.5-4.3l6,2.1&#10;&#9;&#9;v-6.2h4.6L177.3,151.5z"/>
</g>
<g id="check-mark_authentication-19">
	<circle class="st5_authentication-19" cx="360.8" cy="301.8" r="40.1"/>
	<path class="st1_authentication-19" d="M360.8,343.8c-23.2,0-42-18.7-42.1-41.9c0-23.2,18.7-42,41.9-42.1s42,18.7,42.1,41.9c0,0,0,0.1,0,0.1&#10;&#9;&#9;C402.7,325,384,343.7,360.8,343.8z M360.8,263.5c-21.1,0-38.3,17.1-38.3,38.3c0,21.1,17.1,38.3,38.3,38.3s38.3-17.1,38.3-38.3&#10;&#9;&#9;C399.1,280.7,381.9,263.5,360.8,263.5L360.8,263.5z"/>
	<path class="st2_authentication-19" d="M350.8,320.9l-14-14c-0.9-0.9-0.9-2.3,0-3.2c0,0,0,0,0,0l4.4-4.4c0.9-0.9,2.3-0.9,3.2,0c0,0,0,0,0,0l7,7&#10;&#9;&#9;c0.6,0.6,1.5,0.6,2,0c0,0,0,0,0,0l22.9-22.9c1.3-1.3,3.4-1.3,4.7,0l2.9,2.9c1.3,1.3,1.3,3.4,0,4.7c0,0,0,0,0,0l-29.8,29.8&#10;&#9;&#9;C353.2,321.7,351.7,321.7,350.8,320.9z"/>
</g>
</svg>